<svg width="20" height="24" viewBox="0 0 20 24" fill="none" xmlns="http://www.w3.org/2000/svg">
<path d="M9.53132 5.4258C9.63175 5.4258 9.682 5.35547 9.70711 5.24498C9.96658 3.56751 9.94986 3.52735 11.4063 3.19585C11.5068 3.1758 11.5654 3.10547 11.5654 2.98491C11.5654 2.8644 11.5068 2.79407 11.4063 2.77397C9.95822 2.42245 10.0001 2.38225 9.70711 0.724882C9.682 0.614396 9.63175 0.544067 9.53132 0.544067C9.43086 0.544067 9.38065 0.614396 9.35554 0.724882C9.06257 2.38225 9.11279 2.42245 7.65632 2.77397C7.56425 2.79407 7.49729 2.8644 7.49729 2.98491C7.49729 3.10547 7.56425 3.1758 7.65632 3.19585C9.11279 3.54745 9.09604 3.56751 9.35554 5.24498C9.38065 5.35547 9.43086 5.4258 9.53132 5.4258ZM5.48 12.3365C5.63904 12.3365 5.74786 12.216 5.76457 12.0352C6.06593 9.35322 6.14125 9.35322 8.45154 8.8209C8.60222 8.79072 8.711 8.67021 8.711 8.47937C8.711 8.29855 8.60222 8.16797 8.45154 8.13784C6.14125 7.75615 6.05754 7.66572 5.76457 4.93358C5.74786 4.75281 5.63904 4.62222 5.48 4.62222C5.32932 4.62222 5.2205 4.75281 5.20375 4.94365C4.92754 7.6356 4.81032 7.62557 2.51682 8.13784C2.36615 8.17804 2.25732 8.29855 2.25732 8.47937C2.25732 8.68024 2.36615 8.79072 2.55029 8.8209C4.82707 9.26284 4.92754 9.33317 5.20375 12.0151C5.2205 12.216 5.32932 12.3365 5.48 12.3365ZM11.1552 23.4559C11.3729 23.4559 11.5319 23.2651 11.5737 22.9939C12.168 17.4894 12.8126 16.6557 17.3494 16.053C17.5838 16.0229 17.7428 15.8119 17.7428 15.5508C17.7428 15.2896 17.5838 15.0887 17.3494 15.0486C12.8126 14.4459 12.168 13.6122 11.5737 8.10771C11.5319 7.83651 11.3729 7.6557 11.1552 7.6557C10.9376 7.6557 10.7785 7.83651 10.7451 8.10771C10.1508 13.6122 9.49786 14.4459 4.96936 15.0486C4.72665 15.0887 4.56761 15.2896 4.56761 15.5508C4.56761 15.8119 4.72665 16.0229 4.96936 16.053C9.48947 16.7662 10.1173 17.4995 10.7451 22.9939C10.7785 23.2651 10.9376 23.4559 11.1552 23.4559Z" fill="#AC8887"/>
</svg>
