<svg width="15" height="15" viewBox="0 0 15 15" fill="none" xmlns="http://www.w3.org/2000/svg">
<path fill-rule="evenodd" clip-rule="evenodd" d="M13.75 2.13388L6.06694 9.81694C5.82286 10.061 5.42714 10.061 5.18306 9.81694C4.93898 9.57288 4.93898 9.17712 5.18306 8.93306L12.8661 1.25H11.25C10.9048 1.25 10.625 0.970175 10.625 0.625C10.625 0.279822 10.9048 0 11.25 0H14.375C14.7202 0 15 0.279822 15 0.625V3.75C15 4.09517 14.7202 4.375 14.375 4.375C14.0298 4.375 13.75 4.09517 13.75 3.75V2.13388ZM8.11487 1.875C8.46 1.875 8.73987 2.15482 8.73987 2.5C8.73987 2.84518 8.46 3.125 8.11487 3.125H1.875C1.52982 3.125 1.25 3.40482 1.25 3.75V13.125C1.25 13.4702 1.52982 13.75 1.875 13.75H11.2507C11.5959 13.75 11.8757 13.4702 11.8757 13.1233L11.8584 6.87675C11.8574 6.53156 12.1365 6.25094 12.4816 6.25C12.8268 6.24904 13.1074 6.52806 13.1084 6.87325L13.1257 13.125C13.1257 14.1606 12.2863 15 11.2507 15H1.875C0.839469 15 0 14.1606 0 13.125V3.75C0 2.71447 0.839469 1.875 1.875 1.875H8.11487Z" fill="#AC8887"/>
</svg>
