<svg width="51" height="51" viewBox="0 0 51 51" fill="none" xmlns="http://www.w3.org/2000/svg">
<path d="M34.25 16.75H34.275M21.75 14.25H21.775M14.25 24.25H14.275M25.5 48C13.0736 48 3 37.9265 3 25.5C3 13.0736 13.0736 3 25.5 3C37.9265 3 48 13.0736 48 25.5C48 29.6423 44.6423 33 40.5 33H39C38.071 33 37.6065 33 37.2178 33.0615C35.0783 33.4005 33.4005 35.0783 33.0615 37.2178C33 37.6065 33 38.071 33 39V40.5C33 44.6423 29.6423 48 25.5 48ZM35.5 16.75C35.5 17.4403 34.9403 18 34.25 18C33.5597 18 33 17.4403 33 16.75C33 16.0597 33.5597 15.5 34.25 15.5C34.9403 15.5 35.5 16.0597 35.5 16.75ZM23 14.25C23 14.9403 22.4403 15.5 21.75 15.5C21.0597 15.5 20.5 14.9403 20.5 14.25C20.5 13.5597 21.0597 13 21.75 13C22.4403 13 23 13.5597 23 14.25ZM15.5 24.25C15.5 24.9403 14.9403 25.5 14.25 25.5C13.5597 25.5 13 24.9403 13 24.25C13 23.5597 13.5597 23 14.25 23C14.9403 23 15.5 23.5597 15.5 24.25Z" stroke="#DDCFCF" stroke-width="5" stroke-linecap="round" stroke-linejoin="round"/>
</svg>
