<svg width="51" height="51" viewBox="0 0 51 51" fill="none" xmlns="http://www.w3.org/2000/svg">
<path d="M34.25 16.564H34.275M21.75 14.064H21.775M14.25 24.064H14.275M25.5 47.814C13.0736 47.814 3 37.7405 3 25.314C3 12.8876 13.0736 2.81403 25.5 2.81403C37.9265 2.81403 48 12.8876 48 25.314C48 29.4563 44.6423 32.814 40.5 32.814H39C38.071 32.814 37.6065 32.814 37.2177 32.8755C35.0782 33.2145 33.4005 34.8923 33.0615 37.0318C33 37.4205 33 37.885 33 38.814V40.314C33 44.4563 29.6423 47.814 25.5 47.814ZM35.5 16.564C35.5 17.2544 34.9403 17.814 34.25 17.814C33.5597 17.814 33 17.2544 33 16.564C33 15.8737 33.5597 15.314 34.25 15.314C34.9403 15.314 35.5 15.8737 35.5 16.564ZM23 14.064C23 14.7544 22.4403 15.314 21.75 15.314C21.0597 15.314 20.5 14.7544 20.5 14.064C20.5 13.3737 21.0597 12.814 21.75 12.814C22.4403 12.814 23 13.3737 23 14.064ZM15.5 24.064C15.5 24.7543 14.9404 25.314 14.25 25.314C13.5596 25.314 13 24.7543 13 24.064C13 23.3738 13.5596 22.814 14.25 22.814C14.9404 22.814 15.5 23.3738 15.5 24.064Z" stroke="#AC8887" stroke-width="5" stroke-linecap="round" stroke-linejoin="round"/>
</svg>
