<svg width="50" height="50" viewBox="0 0 50 50" fill="none" xmlns="http://www.w3.org/2000/svg">
<path d="M48.2521 34.9433L38.2021 24.7808L46.6771 16.3058C47.549 15.4382 48.2409 14.4068 48.713 13.271C49.1852 12.1351 49.4282 10.9172 49.4282 9.68709C49.4282 8.45703 49.1852 7.23908 48.713 6.10323C48.2409 4.96737 47.549 3.93599 46.6771 3.06834C44.9198 1.31652 42.5397 0.332825 40.0584 0.332825C37.5771 0.332825 35.1969 1.31652 33.4396 3.06834L30.1021 6.36834L24.8146 11.6558L14.6146 1.34334C13.7321 0.482092 12.5478 0 11.3146 0C10.0815 0 8.89719 0.482092 8.01463 1.34334L1.37713 7.98084C0.940599 8.41627 0.59426 8.93354 0.357949 9.50302C0.121639 10.0725 0 10.683 0 11.2996C0 11.9162 0.121639 12.5267 0.357949 13.0962C0.59426 13.6656 0.940599 14.1829 1.37713 14.6183L11.6896 24.7808L10.8646 25.6058L7.52713 28.9058L0.964629 42.6308C0.539903 43.5073 0.398707 44.4942 0.560659 45.4546C0.722612 46.4149 1.17967 47.301 1.86833 47.9896C2.55699 48.6783 3.44305 49.1354 4.40341 49.2973C5.36376 49.4593 6.35071 49.3181 7.22713 48.8933L20.8021 42.3308L22.6396 40.4933L24.1021 39.0308L24.8146 38.1683L34.8646 48.2183C35.7472 49.0796 36.9315 49.5617 38.1646 49.5617C39.3978 49.5617 40.5821 49.0796 41.4646 48.2183L48.1021 41.5808C48.5486 41.1554 48.9068 40.6459 49.1561 40.0818C49.4053 39.5176 49.5408 38.9098 49.5548 38.2932C49.5687 37.6766 49.4608 37.0633 49.2373 36.4885C49.0137 35.9136 48.679 35.3886 48.2521 34.9433ZM40.0396 4.94334C41.2859 4.93931 42.4841 5.42398 43.3771 6.29334C43.8137 6.72877 44.16 7.24604 44.3963 7.81552C44.6326 8.38501 44.7543 8.99552 44.7543 9.61209C44.7543 10.2287 44.6326 10.8392 44.3963 11.4087C44.16 11.9781 43.8137 12.4954 43.3771 12.9308L36.7396 6.48084C37.6233 5.62052 38.8063 5.13657 40.0396 5.13084V4.94334ZM4.67713 11.2808L11.3146 4.68084L14.3896 7.75584L11.1271 11.0558L14.4271 14.3558L17.7271 11.0558L21.4771 14.8058L14.9896 21.5933L4.67713 11.2808ZM5.16463 44.6933L11.0521 32.5808L17.3146 38.8058L5.16463 44.6933ZM20.8021 35.6933L14.1646 29.0558L33.4396 9.78084L40.0396 16.3808L20.8021 35.6933ZM38.3146 44.8808L28.2646 34.8683L34.9021 28.2308L38.3896 31.7183L35.0896 35.0183L38.3896 38.3558L41.7271 35.0183L44.9521 38.2808L38.3146 44.8808Z" fill="#DDCFCF"/>
</svg>
